# Blender 4.0.2
# www.blender.org
mtllib arrow.mtl
o Cube
v -0.136622 0.003826 0.500000
v -0.136622 0.203826 0.500000
v -0.004604 0.100456 -0.500000
v -0.004604 0.107196 -0.500000
v 0.136622 0.003826 0.500000
v 0.136622 0.203826 0.500000
v 0.004604 0.100456 -0.500000
v 0.004604 0.107196 -0.500000
v -0.136622 0.003826 0.000000
v -0.136622 0.203826 0.000000
v 0.136622 0.003826 0.000000
v 0.136622 0.203826 0.000000
v -0.379141 0.203826 -0.009868
v 0.379141 0.003826 -0.009868
v -0.379141 0.003826 -0.009868
v 0.379141 0.203826 -0.009868
vn -0.7946 -0.0000 -0.6072
vn -0.0000 -0.0000 -1.0000
vn 1.0000 -0.0000 -0.0000
vn -0.0000 -0.0000 1.0000
vn -0.0000 -1.0000 -0.0000
vn -0.0000 1.0000 -0.0000
vn 0.0407 -0.0000 0.9992
vn -1.0000 -0.0000 -0.0000
vn 0.7946 -0.0000 -0.6072
vn -0.0000 -0.9811 -0.1934
vn -0.0000 0.9811 -0.1934
vn -0.0407 -0.0000 0.9992
vt 0.375000 0.127467
vt 0.625000 0.127467
vt 0.625000 0.250000
vt 0.375000 0.250000
vt 0.625000 0.500000
vt 0.375000 0.500000
vt 0.375000 0.625000
vt 0.625000 0.625000
vt 0.625000 0.750000
vt 0.375000 0.750000
vt 0.625000 1.000000
vt 0.375000 1.000000
vt 0.125000 0.625000
vt 0.125000 0.750000
vt 0.875000 0.625000
vt 0.875000 0.750000
vt 0.625000 0.622533
vt 0.875000 0.622533
vt 0.125000 0.622533
vt 0.375000 0.622533
vt 0.375000 0.000000
vt 0.625000 0.000000
vt 0.625000 0.125000
vt 0.375000 0.125000
vt 0.125000 0.500000
vt 0.875000 0.500000
s 0
f 15/1/1 13/2/1 4/3/1 3/4/1
f 3/4/2 4/3/2 8/5/2 7/6/2
f 11/7/3 12/8/3 6/9/3 5/10/3
f 5/10/4 6/9/4 2/11/4 1/12/4
f 9/13/5 11/7/5 5/10/5 1/14/5
f 12/8/6 10/15/6 2/16/6 6/9/6
f 16/17/6 13/18/6 10/15/6 12/8/6
f 15/19/5 14/20/5 11/7/5 9/13/5
f 14/20/7 16/17/7 12/8/7 11/7/7
f 1/21/8 2/22/8 10/23/8 9/24/8
f 7/6/9 8/5/9 16/17/9 14/20/9
f 3/25/10 7/6/10 14/20/10 15/19/10
f 8/5/11 4/26/11 13/18/11 16/17/11
f 9/24/12 10/23/12 13/2/12 15/1/12
